<svg width="246" height="44" viewBox="0 0 246 44" fill="none" xmlns="http://www.w3.org/2000/svg">
<path d="M246 0V43.9659H0V0H246ZM2.09362 41.8723H243.906V2.09362H2.09362V41.8723Z" fill="white"/>
<path d="M246 0V43.9659H60.7148V0H246Z" fill="white"/>
<path d="M42.9211 21.9835C42.9211 15.0448 37.2972 9.41995 30.3595 9.41979C23.4215 9.41979 17.7967 15.0447 17.7967 21.9835C17.7967 28.9224 23.4215 34.5473 30.3595 34.5473C37.2972 34.5471 42.9211 28.9223 42.9211 21.9835ZM45.0148 21.9835C45.0148 30.0784 38.4537 36.6407 30.3595 36.6409C22.2651 36.6409 15.7031 30.0785 15.7031 21.9835C15.7031 13.8886 22.2651 7.32617 30.3595 7.32617C38.4537 7.32634 45.0148 13.8887 45.0148 21.9835Z" fill="white"/>
<path d="M31.4055 13.8164V30.1493H29.3118V23.9073L24.1238 27.2685L22.985 25.5112L28.494 21.9435L22.9492 18.0098L24.1596 16.3026L29.3118 19.9562V13.8164H31.4055Z" fill="white"/>
<path d="M212.239 31.4066H209.682V12.6533H212.239L222.601 28.2162H221.897V12.6533H224.455V31.4066H221.897L211.535 15.8437H212.239V31.4066Z" fill="#0C0C0C"/>
<path d="M207.712 22.0299C207.712 23.8685 207.329 25.4981 206.564 26.9188C205.816 28.3228 204.77 29.426 203.427 30.2282C202.1 31.0138 200.561 31.4066 198.81 31.4066C197.092 31.4066 195.562 31.0138 194.219 30.2282C192.892 29.426 191.855 28.3228 191.107 26.9188C190.358 25.5148 189.984 23.8852 189.984 22.0299C189.984 20.1914 190.358 18.5701 191.107 17.1661C191.872 15.7621 192.918 14.659 194.244 13.8567C195.57 13.0545 197.101 12.6533 198.835 12.6533C200.587 12.6533 202.126 13.0545 203.452 13.8567C204.779 14.659 205.816 15.7621 206.564 17.1661C207.329 18.5701 207.712 20.1914 207.712 22.0299ZM205.085 22.0299C205.085 20.626 204.821 19.3975 204.294 18.3445C203.784 17.2915 203.061 16.4809 202.126 15.9126C201.191 15.3276 200.094 15.0351 198.835 15.0351C197.594 15.0351 196.506 15.3276 195.57 15.9126C194.635 16.4809 193.904 17.2915 193.377 18.3445C192.867 19.3975 192.612 20.626 192.612 22.0299C192.612 23.4339 192.867 24.6624 193.377 25.7154C193.904 26.7684 194.635 27.5874 195.57 28.1724C196.506 28.7574 197.594 29.0499 198.835 29.0499C200.094 29.0499 201.191 28.7574 202.126 28.1724C203.061 27.5707 203.784 26.7433 204.294 25.6903C204.821 24.6374 205.085 23.4172 205.085 22.0299Z" fill="#0C0C0C"/>
<path d="M187.916 12.6533V31.4066H185.355V12.6533H187.916Z" fill="#0C0C0C"/>
<path d="M170.876 31.4066H168.318V12.6533H170.876L181.238 28.2162H180.533V12.6533H183.091V31.4066H180.533L170.171 15.8437H170.876V31.4066Z" fill="#0C0C0C"/>
<path d="M154.038 29.0439V31.3138H91.0066V29.0439H154.038ZM161.129 21.9372C161.129 18.0124 157.954 14.8305 154.038 14.8305H91.0066C87.0903 14.8305 83.9154 18.0124 83.9154 21.9372C83.9154 25.862 87.0903 29.0439 91.0066 29.0439V31.3138L90.5247 31.3013C85.741 31.0581 81.9056 27.2143 81.6629 22.4201L81.6504 21.9372C81.6504 16.9206 85.5814 12.8244 90.5247 12.5731L91.0066 12.5605H154.038L154.52 12.5731C159.463 12.8244 163.394 16.9206 163.394 21.9372L163.381 22.4201C163.139 27.2143 159.303 31.0581 154.52 31.3013L154.038 31.3138V29.0439C157.954 29.0439 161.129 25.862 161.129 21.9372Z" fill="#0C0C0C"/>
<rect x="90.0254" y="20.9375" width="64.9027" height="2.09359" rx="1.0468" fill="#0C0C0C"/>
</svg>
